<?xml version="1.0" encoding="UTF-8" standalone="no"?>
<!-- Created with Inkscape (http://www.inkscape.org/) -->

<svg
   width="108mm"
   height="24mm"
   viewBox="0 0 108 24"
   version="1.1"
   id="svg1"
   inkscape:version="1.3.2 (091e20e, 2023-11-25, custom)"
   sodipodi:docname="Runtime logo.svg"
   inkscape:export-filename="Runtime logo.png"
   inkscape:export-xdpi="188.14999"
   inkscape:export-ydpi="188.14999"
   xmlns:inkscape="http://www.inkscape.org/namespaces/inkscape"
   xmlns:sodipodi="http://sodipodi.sourceforge.net/DTD/sodipodi-0.dtd"
   xmlns="http://www.w3.org/2000/svg"
   xmlns:svg="http://www.w3.org/2000/svg">
  <sodipodi:namedview
     id="namedview1"
     pagecolor="#ffffff"
     bordercolor="#000000"
     borderopacity="0.25"
     inkscape:showpageshadow="2"
     inkscape:pageopacity="0.0"
     inkscape:pagecheckerboard="0"
     inkscape:deskcolor="#d1d1d1"
     inkscape:document-units="mm"
     inkscape:zoom="1.5340488"
     inkscape:cx="171.11581"
     inkscape:cy="-73.335346"
     inkscape:window-width="1858"
     inkscape:window-height="1057"
     inkscape:window-x="1912"
     inkscape:window-y="-8"
     inkscape:window-maximized="1"
     inkscape:current-layer="layer1" />
  <defs
     id="defs1" />
  <g
     inkscape:label="Layer 1"
     inkscape:groupmode="layer"
     id="layer1">
    <g
       id="g3"
       inkscape:label="Non-free (Arial)"
       transform="translate(-2.7595819,-35.357143)">
      <path
         style="fill:#dea400;fill-opacity:1;stroke:#e0a500;stroke-width:3.84376;stroke-linecap:round;stroke-linejoin:round;stroke-dasharray:none;stroke-opacity:1"
         d="M 4.0001523,4.0453389 V 20.222779 l 15.9126067,-1.9e-4 -1.072532,-7.96313 -0.806172,-6.3700801 -2.16015,-1.44685 z"
         id="path3"
         sodipodi:nodetypes="ccccccc"
         inkscape:label="Gold" />
      <path
         style="-inkscape-font-specification:'Arial Heavy';fill:#6f6f6f;stroke-width:1.92188;stroke-linecap:round;stroke-linejoin:round"
         d="m 105.90148,15.477719 h -9.004616 c 0.0809,0.72096 0.27585,1.258 0.58482,1.61111 0.43403,0.50738 1.00052,0.76139 1.69941,0.76139 0.44139,0 0.860736,-0.11019 1.257996,-0.33121 0.24273,-0.13966 0.50392,-0.3863 0.78349,-0.73935 l 4.42507,0.40808 c -0.67681,1.17709 -1.49342,2.0231 -2.44979,2.5381 -0.95637,0.50738 -2.3284,0.76139 -4.116086,0.76139 -1.55226,0 -2.77348,-0.21717 -3.66364,-0.65107 -0.89017,-0.44139 -1.62952,-1.1366 -2.21806,-2.08563 -0.58118,-0.95639 -0.87177,-2.07826 -0.87177,-3.36566 0,-1.83187 0.58489,-3.31422 1.75458,-4.4471701 1.17708,-1.13295 2.79923,-1.69939 4.86648,-1.69939 1.677326,0 3.001536,0.25369 3.972626,0.76138 0.97108,0.50738 1.71043,1.2433301 2.21805,2.2070301 0.50763,0.96376 0.76142,2.21811 0.76142,3.76298 z m -4.56852,-2.15187 c -0.0883,-0.86812 -0.32371,-1.48972 -0.70625,-1.86493 -0.37522,-0.37541 -0.871766,-0.56311 -1.489726,-0.56311 -0.71361,0 -1.28375,0.28315 -1.71044,0.84973 -0.2722,0.35298 -0.44504,0.87919 -0.51865,1.57799 z"
         id="path18"
         inkscape:label="e" />
      <path
         style="-inkscape-font-specification:'Arial Heavy';fill:#6f6f6f;stroke-width:1.92188;stroke-linecap:round;stroke-linejoin:round"
         d="m 70.324364,8.5035289 h 4.19333 v 1.7104101 c 0.60328,-0.7136001 1.21019,-1.2211701 1.82079,-1.5228401 0.61795,-0.30173 1.361,-0.45228 2.22909,-0.45228 0.93431,0 1.67365,0.16528 2.21805,0.49649 0.54441,0.3312 0.98948,0.82391 1.33525,1.4786901 0.70625,-0.7651001 1.34995,-1.2837501 1.93114,-1.5559501 0.58118,-0.27932 1.29846,-0.41897 2.15184,-0.41897 1.258,0 2.24013,0.3754 2.94637,1.12558 0.70625,0.7430001 1.05937,1.9090001 1.05937,3.4980801 v 7.36042 h -4.50232 v -6.67623 c 0,-0.5298 -0.10301,-0.92327 -0.30897,-1.18074 -0.30167,-0.40424 -0.67684,-0.60667 -1.12558,-0.60667 -0.52967,0 -0.95638,0.19154 -1.28007,0.574 -0.32371,0.38245 -0.48553,0.99694 -0.48553,1.84289 v 6.0472 h -4.50232 v -6.45554 c 0,-0.51506 -0.0295,-0.86439 -0.0883,-1.04832 -0.0956,-0.29405 -0.26112,-0.5298 -0.49655,-0.70623 -0.23543,-0.18386 -0.51128,-0.27611 -0.82763,-0.27611 -0.515,0 -0.93798,0.19475 -1.26903,0.5849 -0.33102,0.39014 -0.49655,1.02993 -0.49655,1.92008 v 5.98103 h -4.50232 z"
         id="path17"
         inkscape:label="m" />
      <path
         id="path15"
         style="-inkscape-font-specification:'Arial Heavy';fill:#6f6f6f;stroke-width:1.92188;stroke-linecap:round;stroke-linejoin:round"
         inkscape:label="i"
         d="m 62.930854,4.0453389 h 4.49128 v 3.05675 h -4.49128 z m 0,4.45819 h 4.49128 V 20.222779 h -4.49128 z" />
      <path
         style="-inkscape-font-specification:'Arial Heavy';fill:#6f6f6f;stroke-width:1.92188;stroke-linecap:round;stroke-linejoin:round"
         d="m 58.152654,4.0453389 v 4.45819 h 2.47187 v 3.2773801 h -2.47187 v 4.16024 c 0,0.50033 0.048,0.83134 0.14344,0.99316 0.14715,0.25049 0.40462,0.37541 0.77246,0.37541 0.33101,0 0.7945,-0.0955 1.39041,-0.287 l 0.33108,3.10089 c -1.11087,0.2428 -2.14816,0.36388 -3.11189,0.36388 -1.11822,0 -1.94218,-0.1435 -2.47186,-0.43051 -0.52967,-0.287 -0.92327,-0.72102 -1.18076,-1.30213 -0.25016,-0.58874 -0.37521,-1.53751 -0.37521,-2.84702 v -3.77028 -0.35683 h -1.65524 V 8.5033289 h 1.65526 v -2.15186 z"
         id="path14"
         inkscape:label="t" />
      <path
         style="-inkscape-font-specification:'Arial Heavy';fill:#6f6f6f;stroke-width:1.92188;stroke-linecap:round;stroke-linejoin:round"
         d="m 37.660504,8.5035289 h 4.18229 v 1.9090701 c 0.62532,-0.7798401 1.258,-1.3352601 1.89804,-1.6662801 0.64005,-0.33825 1.41985,-0.50737 2.33944,-0.50737 1.24328,0 2.21437,0.37156 2.91326,1.1145 0.70625,0.7356901 1.05937,1.8760101 1.05937,3.4208801 v 7.44871 h -4.51335 v -6.44446 c 0,-0.7357 -0.13607,-1.25435 -0.40827,-1.55596 -0.27221,-0.30942 -0.65473,-0.46381 -1.14765,-0.46381 -0.54441,0 -0.9858,0.20628 -1.32422,0.61821 -0.33844,0.41192 -0.50763,1.15146 -0.50763,2.21804 v 5.62791 h -4.49128 z"
         id="path13"
         inkscape:label="n" />
      <path
         style="-inkscape-font-specification:'Arial Heavy';fill:#fefefe;fill-opacity:1;stroke-width:1.92188;stroke-linecap:round;stroke-linejoin:round"
         d="M 4.0001523,20.222779 V 4.0453389 h 8.3314867 c 1.544911,0 2.725665,0.13261 3.542266,0.39719 0.816595,0.26457 1.475019,0.75767 1.975278,1.47869 0.500266,0.7136 0.750386,1.58543 0.750386,2.61536 0,0.89752 -0.191291,1.6736401 -0.57381,2.3283601 -0.382518,0.64742 -0.908544,1.17344 -1.578019,1.57806 -0.426722,0.25753 -1.011557,0.47086 -1.754575,0.63999 0.595911,0.19859 1.029943,0.39719 1.302139,0.59578 0.183924,0.13261 0.448759,0.41577 0.794525,0.84973 0.353114,0.4337 0.588544,0.76875 0.706247,1.00418 l 2.416683,4.68991 h -5.649968 l -2.670487,-4.94372 c -0.338444,-0.63999 -0.640051,-1.05569 -0.90488,-1.24699 -0.360481,-0.25048 -0.7687587,-0.3754 -1.2248917,-0.3754 h -0.441392 v 6.56585 z m 5.020962,-9.62261 h 2.1077017 c 0.228064,0 0.669469,-0.0737 1.324209,-0.22037 0.331012,-0.066 0.599563,-0.23511 0.805563,-0.5073801 0.213329,-0.27227 0.319994,-0.58489 0.319994,-0.93794 0,-0.52211 -0.165538,-0.92328 -0.49655,-1.20285 -0.331013,-0.27995 -0.952677,-0.41961 -1.864931,-0.41961 H 9.0211203 Z"
         id="text1"
         inkscape:label="R" />
      <path
         style="-inkscape-font-specification:'Arial Heavy';fill:#6f6f6f;stroke-width:1.92188;stroke-linecap:round;stroke-linejoin:round"
         d="m 34.934834,20.222779 h -4.19333 v -1.89805 c -0.62532,0.77983 -1.258,1.33526 -1.898041,1.66633 -0.632683,0.33121 -1.412487,0.49649 -2.339436,0.49649 -1.235931,0 -2.207013,-0.36772 -2.91326,-1.10348 -0.698892,-0.74306 -1.048335,-1.88332 -1.048335,-3.42089 V 8.5034589 h 4.513348 v 6.4444601 c 0,0.73569 0.136133,1.25806 0.408336,1.56704 0.272202,0.30878 0.654727,0.46317 1.147645,0.46317 0.537038,0 0.974763,-0.20628 1.313173,-0.61821 0.34575,-0.41192 0.51866,-1.15146 0.51866,-2.21804 V 8.5029489 h 4.49128 z"
         id="path12"
         inkscape:label="u" />
    </g>
    <g
       id="g2"
       inkscape:label="Questionable Kerning"
       transform="translate(-2.5871081,-84.68467)">
      <path
         style="fill:#e0a500;fill-opacity:1;stroke:#e0a500;stroke-width:3.8;stroke-linecap:round;stroke-linejoin:round;stroke-dasharray:none;stroke-opacity:1"
         d="m 3.776763,27.713664 v 16.189167 h 15.591178 c 0,0 -1.991199,-16.134538 -2.293028,-16.134538 -0.301829,0 -13.29815,-0.05463 -13.29815,-0.05463 z"
         id="path11"
         inkscape:label="Gold" />
      <path
         style="font-weight:900;font-size:22.2669px;font-family:Nim;-inkscape-font-specification:'Nim Heavy';fill:#6f6f6f;stroke-width:3.78713;stroke-linecap:round;stroke-linejoin:round"
         d="m 107.50708,38.52094 h -8.958949 q 0.08698,1.435171 1.087251,2.196247 1.011148,0.761075 2.968198,0.761075 1.23946,0 2.40282,-0.445772 1.16336,-0.445773 1.83746,-0.956781 h 0.4349 v 3.142155 q -1.32645,0.532753 -2.50068,0.771948 -1.17423,0.239195 -2.59853,0.239195 -3.674909,0 -5.63196,-1.652621 -1.957052,-1.652622 -1.957052,-4.707797 0,-3.022557 1.848327,-4.783904 1.859199,-1.772219 5.088335,-1.772219 2.97907,0 4.47947,1.511279 1.50041,1.500406 1.50041,4.327259 z m -3.89236,-2.2941 q -0.0326,-1.228593 -0.60886,-1.848326 -0.57624,-0.619733 -1.79396,-0.619733 -1.13074,0 -1.859203,0.587115 -0.728458,0.587116 -0.815438,1.880944 z"
         id="path10"
         inkscape:label="e" />
      <path
         style="font-weight:900;font-size:22.2669px;font-family:Nim;-inkscape-font-specification:'Nim Heavy';fill:#6f6f6f;stroke-width:3.78713;stroke-linecap:round;stroke-linejoin:round"
         d="m 83.859369,35.248315 v 8.654517 h -3.935848 v -6.099478 q 0,-0.891545 -0.04349,-1.511279 -0.04349,-0.630605 -0.239196,-1.022015 -0.195705,-0.391411 -0.597988,-0.565371 -0.39141,-0.184833 -1.108996,-0.184833 -0.576243,0 -1.119868,0.239196 -0.543625,0.228322 -0.978526,0.489263 v 8.654517 H 71.921354 V 31.693004 h 3.914103 v 1.348191 q 1.011144,-0.793693 1.935307,-1.239466 0.924163,-0.445773 2.044032,-0.445773 1.206848,0 2.131011,0.543626 0.924164,0.532753 1.446044,1.576514 1.174231,-0.989399 2.283227,-1.554769 1.108996,-0.565371 2.174502,-0.565371 1.978797,0 3.000813,1.185104 1.032888,1.185103 1.032888,3.413968 v 7.947804 h -3.935848 v -6.099478 q 0,-0.902418 -0.04349,-1.522151 -0.03262,-0.619733 -0.228322,-1.011143 -0.184833,-0.391411 -0.587116,-0.565371 -0.402283,-0.184833 -1.130741,-0.184833 -0.489263,0 -0.95678,0.173961 -0.467518,0.163087 -1.141615,0.554498 z"
         id="path9"
         inkscape:label="m" />
      <path
         id="path7"
         style="font-weight:900;font-size:22.2669px;font-family:Nim;-inkscape-font-specification:'Nim Heavy';fill:#6f6f6f;stroke-width:3.78713;stroke-linecap:round;stroke-linejoin:round"
         inkscape:label="i"
         d="M 68.224701,43.902832 H 64.310598 V 31.693004 h 3.914103 z m 0.108725,-13.949429 h -4.131553 v -2.968195 h 4.131553 z" />
      <path
         style="font-weight:900;font-size:22.2669px;font-family:Nim;-inkscape-font-specification:'Nim Heavy';fill:#6f6f6f;stroke-width:3.78713;stroke-linecap:round;stroke-linejoin:round"
         d="m 61.973009,43.794107 q -0.630606,0.163088 -1.337319,0.250068 -0.706713,0.09785 -1.728729,0.09785 -2.283227,0 -3.403095,-0.924163 -1.108996,-0.924163 -1.108996,-3.1639 v -5.708066 h -1.609131 v -2.652892 h 1.609131 v -3.490075 h 3.914103 v 3.490075 h 3.664036 v 2.652892 h -3.664036 v 4.327259 q 0,0.641478 0.01087,1.119869 0.01087,0.47839 0.17396,0.858928 0.152215,0.380538 0.532753,0.60886 0.39141,0.21745 1.130741,0.21745 0.30443,0 0.793693,-0.13047 0.500136,-0.13047 0.695841,-0.239195 h 0.326175 z"
         id="path6"
         inkscape:label="t" />
      <path
         style="font-weight:900;font-size:22.2669px;font-family:Nim;-inkscape-font-specification:'Nim Heavy';fill:#6f6f6f;stroke-width:3.78713;stroke-linecap:round;stroke-linejoin:round"
         d="m 50.567746,43.902832 h -3.935848 v -6.055988 q 0,-0.73933 -0.07611,-1.467788 -0.07611,-0.739331 -0.260941,-1.087251 -0.21745,-0.402283 -0.641478,-0.587116 -0.413155,-0.184833 -1.163358,-0.184833 -0.532753,0 -1.087251,0.173961 -0.543626,0.17396 -1.185104,0.554498 v 8.654517 h -3.9141 V 31.693004 h 3.914103 v 1.348191 q 1.043761,-0.815438 2.000542,-1.250338 0.967653,-0.434901 2.141884,-0.434901 1.978797,0 3.087793,1.152486 1.119868,1.152486 1.119868,3.446586 z"
         id="path5"
         inkscape:label="n" />
      <path
         style="font-weight:900;font-size:22.2669px;font-family:Nim;-inkscape-font-specification:'Nim Heavy';fill:#6f6f6f;stroke-width:3.78713;stroke-linecap:round;stroke-linejoin:round"
         d="m 34.606901,43.902832 h -3.914104 v -1.348191 q -1.087251,0.826311 -1.989669,1.261211 -0.902418,0.424028 -2.152757,0.424028 -2.022287,0 -3.12041,-1.163359 -1.087251,-1.163358 -1.087251,-3.435713 v -7.947804 h 3.935848 v 6.055988 q 0,0.924163 0.05436,1.543896 0.06524,0.608861 0.282685,1.011143 0.206578,0.402283 0.619733,0.587116 0.424028,0.184833 1.174231,0.184833 0.500136,0 1.108996,-0.184833 0.608861,-0.184833 1.174231,-0.543626 v -8.654517 h 3.914104 z"
         id="path4"
         inkscape:label="u" />
      <path
         style="font-weight:900;font-size:22.2669px;font-family:Nim;-inkscape-font-specification:'Nim Heavy';fill:#fefefe;fill-opacity:1;stroke-width:3.78713;stroke-linecap:round;stroke-linejoin:round"
         d="m 12.855308,32.67153 q 0,-0.608861 -0.250067,-1.043761 -0.250068,-0.4349 -0.858929,-0.684968 -0.424027,-0.17396 -0.989398,-0.206578 -0.56537,-0.04349 -1.3155736,-0.04349 H 7.9300616 v 4.359876 h 1.2829561 q 1.0002713,0 1.6743663,-0.09785 0.674096,-0.09785 1.130741,-0.445773 0.4349,-0.337048 0.630606,-0.739331 0.206577,-0.413155 0.206577,-1.098123 z m 6.512633,11.231302 H 14.268735 L 9.8544957,37.966442 H 7.9300616 v 5.93639 H 3.776763 V 27.713666 h 7.001896 q 1.435171,0 2.46806,0.163087 1.032888,0.163088 1.935306,0.706713 0.913291,0.543626 1.446044,1.413427 0.543626,0.858928 0.543626,2.163629 0,1.793964 -0.837184,2.924705 -0.82631,1.130741 -2.370207,1.880944 z"
         id="text2"
         inkscape:label="R" />
    </g>
    <g
       id="g11"
       inkscape:label="Final"
       transform="translate(1.0348432,-45.533026)">
      <path
         style="fill:#e0a500;fill-opacity:1;stroke:#e0a500;stroke-width:3.8;stroke-linecap:round;stroke-linejoin:round;stroke-dasharray:none;stroke-opacity:1"
         d="M 3.0868688,49.464695 V 66.083547 H 19.091864 L 17.807927,49.464695 Z"
         id="path25"
         sodipodi:nodetypes="ccccc"
         inkscape:label="Gold" />
      <path
         style="font-weight:900;font-size:22.8579px;line-height:0;font-family:Nim;-inkscape-font-specification:'Nim Heavy';letter-spacing:-1.32292px;fill:#6f6f6f;stroke-width:24.6217;stroke-linecap:round;stroke-linejoin:round"
         d="m 102.96051,60.558813 h -9.196736 q 0.08929,1.473263 1.116108,2.254539 1.037981,0.781276 3.046976,0.781276 1.272364,0 2.466602,-0.457605 1.19423,-0.457604 1.88622,-0.982175 h 0.44644 v 3.225553 q -1.36165,0.546893 -2.56704,0.792437 -1.205402,0.245544 -2.667504,0.245544 -3.772446,0 -5.781442,-1.696485 -2.008995,-1.696485 -2.008995,-4.832749 0,-3.102782 1.897385,-4.910877 1.908545,-1.819257 5.223387,-1.819257 3.058137,0 4.598369,1.551391 1.54023,1.540229 1.54023,4.442111 z m -3.995671,-2.354989 q -0.03348,-1.261203 -0.625021,-1.897384 -0.591537,-0.636182 -1.841578,-0.636182 -1.160753,0 -1.908546,0.602698 -0.747793,0.602699 -0.837081,1.930868 z"
         id="path24"
         inkscape:label="e" />
      <path
         style="font-weight:900;font-size:22.8579px;line-height:0;font-family:Nim;-inkscape-font-specification:'Nim Heavy';letter-spacing:-1.32292px;fill:#6f6f6f;stroke-width:24.6217;stroke-linecap:round;stroke-linejoin:round"
         d="m 80.008067,57.199326 v 8.884223 h -4.040312 v -6.261368 q 0,-0.915209 -0.04465,-1.551391 -0.04464,-0.647342 -0.245544,-1.049141 -0.200899,-0.401799 -0.613859,-0.580377 -0.401799,-0.189738 -1.138431,-0.189738 -0.591537,0 -1.149591,0.245544 -0.558055,0.234382 -1.004498,0.502248 v 8.884223 h -4.01799 V 53.549652 h 4.01799 v 1.383974 q 1.037981,-0.814759 1.986673,-1.272363 0.948692,-0.457605 2.098284,-0.457605 1.23888,0 2.187572,0.558054 0.948692,0.546894 1.484425,1.618358 1.205397,-1.015659 2.343827,-1.596035 1.138431,-0.580377 2.232217,-0.580377 2.031317,0 3.080459,1.216558 1.060303,1.216559 1.060303,3.504581 v 8.158752 H 84.20463 v -6.261368 q 0,-0.92637 -0.04465,-1.562552 -0.03348,-0.636181 -0.234382,-1.03798 -0.189739,-0.401799 -0.602699,-0.580377 -0.41296,-0.189738 -1.160753,-0.189738 -0.502248,0 -0.982175,0.178577 -0.479927,0.167416 -1.171914,0.569215 z"
         id="path23"
         inkscape:label="m" />
      <path
         id="path21"
         style="font-weight:900;font-size:22.8579px;line-height:0;font-family:Nim;-inkscape-font-specification:'Nim Heavy';letter-spacing:-1.32292px;fill:#6f6f6f;stroke-width:24.6217;stroke-linecap:round;stroke-linejoin:round"
         d="m 65.281349,66.083549 h -4.01799 V 53.549652 h 4.01799 z M 65.39296,51.763878 h -4.241212 v -3.046976 h 4.241212 z"
         inkscape:label="i" />
      <path
         style="font-weight:900;font-size:22.8579px;line-height:0;font-family:Nim;-inkscape-font-specification:'Nim Heavy';letter-spacing:-1.32292px;fill:#6f6f6f;stroke-width:24.6217;stroke-linecap:round;stroke-linejoin:round"
         d="m 60.186643,65.971939 q -0.647342,0.167416 -1.372813,0.256705 -0.72547,0.100449 -1.774612,0.100449 -2.343828,0 -3.49342,-0.948692 -1.13843,-0.948692 -1.13843,-3.247875 v -5.85957 h -1.651841 v -2.723304 h 1.651841 v -3.582708 h 4.01799 v 3.582708 h 3.761285 v 2.723304 h -3.761285 v 4.442112 q 0,0.658504 0.01116,1.149592 0.01116,0.491087 0.178577,0.881725 0.156256,0.390638 0.546894,0.625021 0.401799,0.223222 1.160752,0.223222 0.312511,0 0.81476,-0.133933 0.513409,-0.133933 0.714309,-0.245544 h 0.334832 z"
         id="path20"
         inkscape:label="t" />
      <path
         style="font-weight:900;font-size:22.8579px;line-height:0;font-family:Nim;-inkscape-font-specification:'Nim Heavy';letter-spacing:-1.32292px;fill:#6f6f6f;stroke-width:24.6217;stroke-linecap:round;stroke-linejoin:round"
         d="m 49.801586,66.083549 h -4.040312 v -6.216723 q 0,-0.758954 -0.07813,-1.506747 -0.07813,-0.758954 -0.267866,-1.116108 -0.223221,-0.41296 -0.658504,-0.602699 -0.424121,-0.189738 -1.194236,-0.189738 -0.546893,0 -1.116108,0.178577 -0.558054,0.178577 -1.216558,0.569215 v 8.884223 H 37.211883 V 53.549652 h 4.017991 v 1.383974 q 1.071464,-0.837081 2.053639,-1.283524 0.993337,-0.446444 2.198734,-0.446444 2.031317,0 3.169748,1.183075 1.149591,1.183075 1.149591,3.538064 z"
         id="path19"
         inkscape:label="n" />
      <path
         style="font-weight:900;font-size:22.8579px;line-height:0;font-family:Nim;-inkscape-font-specification:'Nim Heavy';letter-spacing:-1.32292px;fill:#6f6f6f;stroke-width:24.6217;stroke-linecap:round;stroke-linejoin:round"
         d="m 34.740037,66.083549 h -4.01799 v -1.383974 q -1.116109,0.848242 -2.042479,1.294686 -0.92637,0.435282 -2.209894,0.435282 -2.075962,0 -3.203232,-1.194236 -1.116108,-1.194236 -1.116108,-3.526903 v -8.158752 h 4.040313 v 6.216724 q 0,0.948692 0.05581,1.584874 0.06697,0.62502 0.290188,1.037981 0.212061,0.41296 0.636182,0.602698 0.435282,0.189739 1.205397,0.189739 0.51341,0 1.138431,-0.189739 0.62502,-0.189738 1.205397,-0.558054 v -8.884223 h 4.01799 z"
         id="path16"
         inkscape:label="u" />
      <path
         style="font-weight:900;font-size:22.8579px;line-height:0;font-family:Nim;-inkscape-font-specification:'Nim Heavy';letter-spacing:-1.32292px;fill:#fefefe;fill-opacity:1;stroke-width:24.6217;stroke-linecap:round;stroke-linejoin:round"
         d="m 12.406374,54.554149 q 0,-0.62502 -0.256705,-1.071464 -0.256704,-0.446443 -0.881725,-0.703148 -0.435282,-0.178577 -1.015659,-0.212061 -0.5803763,-0.04464 -1.3504911,-0.04464 H 7.3504032 v 4.475595 h 1.317008 q 1.0268197,0 1.7188068,-0.10045 0.691987,-0.10045 1.160753,-0.457604 0.446443,-0.345994 0.647343,-0.758954 0.21206,-0.424121 0.21206,-1.12727 z m 6.68549,11.5294 H 13.857315 L 9.3259151,59.989597 H 7.3504032 v 6.093952 H 3.086869 V 49.464695 h 7.187738 q 1.473263,0 2.533566,0.167416 1.060303,0.167417 1.986673,0.725471 0.937532,0.558054 1.484425,1.450941 0.558054,0.881725 0.558054,2.221055 0,1.841579 -0.859404,3.002332 -0.848242,1.160753 -2.433116,1.930868 z"
         id="text11"
         inkscape:label="R" />
    </g>
  </g>
</svg>
